<?xml version="1.0" encoding="UTF-8"?>
<!DOCTYPE svg PUBLIC "-//W3C//DTD SVG 1.1//EN" "http://www.w3.org/Graphics/SVG/1.1/DTD/svg11.dtd">
<svg xmlns="http://www.w3.org/2000/svg" version="1.1" width="339px" height="217px" style="shape-rendering:geometricPrecision; text-rendering:geometricPrecision; image-rendering:optimizeQuality; fill-rule:evenodd; clip-rule:evenodd" xmlns:xlink="http://www.w3.org/1999/xlink">
<g><path style="opacity:1" fill="#fefefe" d="M -0.5,-0.5 C 112.5,-0.5 225.5,-0.5 338.5,-0.5C 338.5,71.8333 338.5,144.167 338.5,216.5C 225.5,216.5 112.5,216.5 -0.5,216.5C -0.5,144.167 -0.5,71.8333 -0.5,-0.5 Z"/></g>
<g><path style="opacity:1" fill="#8babd2" d="M 284.5,30.5 C 286.094,31.983 287.76,33.483 289.5,35C 230.833,35.6667 172.167,35.6667 113.5,35C 115.066,34.3918 116.4,33.5585 117.5,32.5C 160.906,13.863 205.906,9.02967 252.5,18C 264.028,20.3354 274.694,24.502 284.5,30.5 Z"/></g>
<g><path style="opacity:1" fill="#84a6cf" d="M 284.5,30.5 C 292.004,33.3496 298.004,38.0163 302.5,44.5C 267.506,45.8332 232.173,46.4999 196.5,46.5C 161.167,46.3333 125.833,46.1667 90.5,46C 95.5945,43.1254 100.595,40.292 105.5,37.5C 108.983,34.7633 112.983,33.0966 117.5,32.5C 116.4,33.5585 115.066,34.3918 113.5,35C 172.167,35.6667 230.833,35.6667 289.5,35C 287.76,33.483 286.094,31.983 284.5,30.5 Z"/></g>
<g><path style="opacity:1" fill="#7b9ecb" d="M 105.5,37.5 C 100.595,40.292 95.5945,43.1254 90.5,46C 125.833,46.1667 161.167,46.3333 196.5,46.5C 232.173,46.4999 267.506,45.8332 302.5,44.5C 306.605,47.2705 309.605,50.9372 311.5,55.5C 293.402,57.4665 275.069,58.1331 256.5,57.5C 257.028,56.2794 257.695,55.1127 258.5,54C 250.5,53.3333 242.5,53.3333 234.5,54C 233.837,55.5185 232.837,56.6851 231.5,57.5C 177.823,58.1624 124.49,57.4957 71.5,55.5C 81.9181,47.9554 93.2514,41.9554 105.5,37.5 Z"/></g>
<g><path style="opacity:1" fill="#7398c8" d="M 71.5,55.5 C 124.49,57.4957 177.823,58.1624 231.5,57.5C 230.89,59.4341 229.89,61.1007 228.5,62.5C 173.428,62.8288 118.428,62.4955 63.5,61.5C 65.8599,59.1468 68.5265,57.1468 71.5,55.5 Z"/></g>
<g><path style="opacity:1" fill="#c0bfc1" d="M 255.5,58.5 C 258.187,58.3359 260.854,58.5026 263.5,59C 259.451,64.2706 255.784,69.7706 252.5,75.5C 248.5,81.5 244.5,87.5 240.5,93.5C 236.643,96.5381 234.31,100.538 233.5,105.5C 229.089,110.648 225.422,116.314 222.5,122.5C 219.537,123.741 216.537,123.741 213.5,122.5C 227.51,101.138 241.51,79.8049 255.5,58.5 Z"/></g>
<g><path style="opacity:1" fill="#6991c4" d="M 63.5,61.5 C 118.428,62.4955 173.428,62.8288 228.5,62.5C 225.857,67.1321 222.857,71.4654 219.5,75.5C 206.167,75.5 192.833,75.5 179.5,75.5C 178.833,75.5 178.167,75.5 177.5,75.5C 176.107,71.9388 173.607,69.6055 170,68.5C 165.793,70.2045 161.96,72.5378 158.5,75.5C 121.167,75.5 83.8333,75.5 46.5,75.5C 51.579,70.0846 57.2457,65.418 63.5,61.5 Z"/></g>
<g><path style="opacity:1" fill="#6a92c5" d="M 311.5,55.5 C 312.11,56.391 312.443,57.391 312.5,58.5C 314.309,64.0684 315.642,69.735 316.5,75.5C 295.167,75.5 273.833,75.5 252.5,75.5C 255.784,69.7706 259.451,64.2706 263.5,59C 260.854,58.5026 258.187,58.3359 255.5,58.5C 255.5,57.8333 255.833,57.5 256.5,57.5C 275.069,58.1331 293.402,57.4665 311.5,55.5 Z"/></g>
<g><path style="opacity:1" fill="#bfbfc2" d="M 177.5,75.5 C 178.167,75.5 178.833,75.5 179.5,75.5C 182.441,81.556 181.275,86.8893 176,91.5C 175.5,99.4931 175.334,107.493 175.5,115.5C 174.892,118.327 173.892,120.993 172.5,123.5C 169.482,123.665 166.482,123.498 163.5,123C 166.807,120.222 168.974,116.722 170,112.5C 171.419,104.173 171.752,95.8401 171,87.5C 174.405,84.0765 176.571,80.0765 177.5,75.5 Z"/></g>
<g><path style="opacity:1" fill="#5c88bf" d="M 312.5,58.5 C 317.925,68.0103 320.259,78.3436 319.5,89.5C 295.831,89.3334 272.164,89.5 248.5,90C 245.929,91.4538 243.262,92.6205 240.5,93.5C 244.5,87.5 248.5,81.5 252.5,75.5C 273.833,75.5 295.167,75.5 316.5,75.5C 315.642,69.735 314.309,64.0684 312.5,58.5 Z"/></g>
<g><path style="opacity:1" fill="#5c89c0" d="M 46.5,75.5 C 83.8333,75.5 121.167,75.5 158.5,75.5C 154.975,79.1834 150.975,82.3501 146.5,85C 144.393,86.2635 143.393,88.0968 143.5,90.5C 129.167,90.5 114.833,90.5 100.5,90.5C 85.0054,89.3387 69.3388,89.172 53.5,90C 40.5488,92.2175 30.0488,98.3842 22,108.5C 17.6396,115.095 16.6396,122.095 19,129.5C 20.9384,132.106 23.4384,133.939 26.5,135C 20.1413,139.021 15.6413,144.521 13,151.5C 9.99527,137.922 11.6619,124.922 18,112.5C 25.0992,98.2937 34.5992,85.9603 46.5,75.5 Z"/></g>
<g><path style="opacity:1" fill="#5b89c1" d="M 179.5,75.5 C 192.833,75.5 206.167,75.5 219.5,75.5C 214.92,83.4189 209.92,91.0856 204.5,98.5C 195.167,98.5 185.833,98.5 176.5,98.5C 176.822,104.358 176.489,110.025 175.5,115.5C 175.334,107.493 175.5,99.4931 176,91.5C 181.275,86.8893 182.441,81.556 179.5,75.5 Z"/></g>
<g><path style="opacity:1" fill="#c0bfc1" d="M 97.5,94.5 C 99.8568,94.3367 102.19,94.5034 104.5,95C 97.6136,104.38 90.9469,113.88 84.5,123.5C 82.076,123.808 79.7427,123.474 77.5,122.5C 84.1884,113.1 90.8551,103.766 97.5,94.5 Z"/></g>
<g><path style="opacity:1" fill="#bfbfc1" d="M 315.5,104.5 C 314.508,104.328 313.842,104.662 313.5,105.5C 299.829,105.333 286.163,105.5 272.5,106C 264.438,121.362 252.104,131.529 235.5,136.5C 222.449,140.213 209.116,141.38 195.5,140C 193.249,139.252 191.916,137.752 191.5,135.5C 213.571,138.664 233.571,133.831 251.5,121C 258.035,115.246 263.368,108.579 267.5,101C 282.535,100.876 297.535,100.21 312.5,99C 314.844,98.1628 316.844,96.8294 318.5,95C 321.833,94.3333 325.167,94.3333 328.5,95C 325.111,99.5697 320.777,102.736 315.5,104.5 Z"/></g>
<g><path style="opacity:1" fill="#c0bfc1" d="M 63.5,105.5 C 62.0222,105.238 60.6888,105.571 59.5,106.5C 55.4735,112.851 51.4735,119.184 47.5,125.5C 45.097,125.305 43.4304,124.138 42.5,122C 45.8534,114.807 49.8534,107.974 54.5,101.5C 58.5,100.167 62.5,100.167 66.5,101.5C 65.4793,102.901 64.4793,104.235 63.5,105.5 Z"/></g>
<g><path style="opacity:1" fill="#5283be" d="M 100.5,90.5 C 114.833,90.5 129.167,90.5 143.5,90.5C 143.261,92.4672 143.594,94.3005 144.5,96C 136.234,100.604 128.234,105.604 120.5,111C 124.821,111.499 129.154,111.666 133.5,111.5C 131.684,113.137 129.684,114.637 127.5,116C 132.552,116.726 137.552,116.559 142.5,115.5C 141.895,119.054 140.061,121.721 137,123.5C 131.988,119.078 126.155,116.411 119.5,115.5C 113.56,115.636 108.894,118.136 105.5,123C 98.5079,123.5 91.5079,123.666 84.5,123.5C 90.9469,113.88 97.6136,104.38 104.5,95C 102.19,94.5034 99.8568,94.3367 97.5,94.5C 98.5116,93.1283 99.5116,91.795 100.5,90.5 Z"/></g>
<g><path style="opacity:1" fill="#5082bd" d="M 204.5,98.5 C 199.177,106.471 193.844,114.471 188.5,122.5C 183.208,123.495 177.875,123.828 172.5,123.5C 173.892,120.993 174.892,118.327 175.5,115.5C 176.489,110.025 176.822,104.358 176.5,98.5C 185.833,98.5 195.167,98.5 204.5,98.5 Z"/></g>
<g><path style="opacity:1" fill="#5889c6" d="M 63.5,105.5 C 59.7607,111.974 55.7607,118.307 51.5,124.5C 50.3112,125.429 48.9778,125.762 47.5,125.5C 51.4735,119.184 55.4735,112.851 59.5,106.5C 60.6888,105.571 62.0222,105.238 63.5,105.5 Z"/></g>
<g><path style="opacity:1" fill="#bdbfc0" d="M 142.5,115.5 C 137.552,116.559 132.552,116.726 127.5,116C 129.684,114.637 131.684,113.137 133.5,111.5C 137.061,109.952 140.394,107.952 143.5,105.5C 143.833,106.167 144.167,106.833 144.5,107.5C 144.036,110.349 143.369,113.016 142.5,115.5 Z"/></g>
<g><path style="opacity:1" fill="#5687c3" d="M 233.5,105.5 C 233.781,107.963 234.781,110.13 236.5,112C 233.103,117.198 228.436,120.698 222.5,122.5C 225.422,116.314 229.089,110.648 233.5,105.5 Z"/></g>
<g><path style="opacity:1" fill="#bfbfc0" d="M 107.5,134.5 C 97.224,139.818 86.224,141.985 74.5,141C 72.8588,142.129 71.8588,143.629 71.5,145.5C 67.4874,149.515 63.8207,153.848 60.5,158.5C 56.4073,162.929 51.7406,166.596 46.5,169.5C 40.3312,173.042 33.6646,174.709 26.5,174.5C 25.609,173.89 24.609,173.557 23.5,173.5C 21.5767,173.205 19.9101,172.372 18.5,171C 28.3987,171.224 37.3987,168.557 45.5,163C 50.4285,158.616 55.2619,154.116 60,149.5C 63.1667,145 66.3333,140.5 69.5,136C 76.8333,135.667 84.1667,135.333 91.5,135C 96.151,134.258 99.9843,132.092 103,128.5C 103.599,131.254 105.099,133.254 107.5,134.5 Z"/></g>
<g><path style="opacity:1" fill="#bfbfc0" d="M 189.5,135.5 C 186.093,137.473 182.426,138.973 178.5,140C 157.5,140.667 136.5,140.667 115.5,140C 112.691,139.688 111.024,138.188 110.5,135.5C 132.169,135.667 153.836,135.5 175.5,135C 178.994,133.421 182.327,131.587 185.5,129.5C 185.975,132.201 187.308,134.201 189.5,135.5 Z"/></g>
<g><path style="opacity:1" fill="#5585be" d="M 313.5,105.5 C 308.179,118.476 300.512,129.809 290.5,139.5C 272.356,137.837 254.023,136.837 235.5,136.5C 252.104,131.529 264.438,121.362 272.5,106C 286.163,105.5 299.829,105.333 313.5,105.5 Z"/></g>
<g><path style="opacity:1" fill="#bfc0bf" d="M 40.5,137.5 C 42.0281,137.517 42.5281,138.184 42,139.5C 37.4196,145.66 33.0862,151.993 29,158.5C 28.0093,157.57 27.5093,156.404 27.5,155C 29.7471,147.59 34.0804,141.757 40.5,137.5 Z"/></g>
<g><path style="opacity:1" fill="#324c6e" d="M 315.5,104.5 C 309.645,120.375 300.645,134.209 288.5,146C 257.407,173.885 221.407,192.885 180.5,203C 146.356,211.515 112.022,212.515 77.5,206C 66.9849,203.441 56.9849,199.607 47.5,194.5C 47.8417,193.662 48.5084,193.328 49.5,193.5C 56.1857,196.002 62.8524,198.835 69.5,202C 77.948,203.634 86.2814,205.134 94.5,206.5C 110.497,209.116 126.497,209.116 142.5,206.5C 149.554,206.183 156.554,205.35 163.5,204C 168.061,202.121 172.728,200.954 177.5,200.5C 182.809,199.924 187.809,198.591 192.5,196.5C 199.531,194.936 206.198,192.602 212.5,189.5C 219.906,187.293 226.906,184.293 233.5,180.5C 238.63,178.101 243.63,175.435 248.5,172.5C 254.881,168.983 260.881,164.983 266.5,160.5C 272.438,156.894 277.771,152.561 282.5,147.5C 285.5,145.167 288.167,142.5 290.5,139.5C 300.512,129.809 308.179,118.476 313.5,105.5C 313.842,104.662 314.508,104.328 315.5,104.5 Z"/></g>
<g><path style="opacity:1" fill="#608cc2" d="M 107.5,134.5 C 108.609,134.557 109.609,134.89 110.5,135.5C 111.024,138.188 112.691,139.688 115.5,140C 136.5,140.667 157.5,140.667 178.5,140C 182.426,138.973 186.093,137.473 189.5,135.5C 190.167,135.5 190.833,135.5 191.5,135.5C 191.916,137.752 193.249,139.252 195.5,140C 209.116,141.38 222.449,140.213 235.5,136.5C 254.023,136.837 272.356,137.837 290.5,139.5C 288.167,142.5 285.5,145.167 282.5,147.5C 212.508,145.503 142.175,144.837 71.5,145.5C 71.8588,143.629 72.8588,142.129 74.5,141C 86.224,141.985 97.224,139.818 107.5,134.5 Z"/></g>
<g><path style="opacity:1" fill="#6891c4" d="M 71.5,145.5 C 142.175,144.837 212.508,145.503 282.5,147.5C 277.771,152.561 272.438,156.894 266.5,160.5C 198.175,158.503 129.508,157.837 60.5,158.5C 63.8207,153.848 67.4874,149.515 71.5,145.5 Z"/></g>
<g><path style="opacity:1" fill="#779bca" d="M 60.5,158.5 C 129.508,157.837 198.175,158.503 266.5,160.5C 260.881,164.983 254.881,168.983 248.5,172.5C 181.34,170.834 114.006,169.834 46.5,169.5C 51.7406,166.596 56.4073,162.929 60.5,158.5 Z"/></g>
<g><path style="opacity:1" fill="#5679a2" d="M 23.5,173.5 C 24.609,173.557 25.609,173.89 26.5,174.5C 27.0798,176.749 28.4131,178.415 30.5,179.5C 32.7596,181.65 35.0929,183.817 37.5,186C 38.448,186.483 39.448,186.649 40.5,186.5C 43.2139,189.215 46.2139,191.549 49.5,193.5C 48.5084,193.328 47.8417,193.662 47.5,194.5C 37.6472,189.649 29.6472,182.649 23.5,173.5 Z"/></g>
<g><path style="opacity:1" fill="#80a2cd" d="M 46.5,169.5 C 114.006,169.834 181.34,170.834 248.5,172.5C 243.63,175.435 238.63,178.101 233.5,180.5C 233.611,179.883 233.944,179.383 234.5,179C 166.332,178.168 98.3321,178.335 30.5,179.5C 28.4131,178.415 27.0798,176.749 26.5,174.5C 33.6646,174.709 40.3312,173.042 46.5,169.5 Z"/></g>
<g><path style="opacity:1" fill="#85a6d0" d="M 233.5,180.5 C 226.906,184.293 219.906,187.293 212.5,189.5C 213.6,188.442 214.934,187.608 216.5,187C 157.834,186.5 99.1676,186.333 40.5,186.5C 39.448,186.649 38.448,186.483 37.5,186C 35.0929,183.817 32.7596,181.65 30.5,179.5C 98.3321,178.335 166.332,178.168 234.5,179C 233.944,179.383 233.611,179.883 233.5,180.5 Z"/></g>
<g><path style="opacity:1" fill="#8cabd2" d="M 40.5,186.5 C 99.1676,186.333 157.834,186.5 216.5,187C 214.934,187.608 213.6,188.442 212.5,189.5C 206.198,192.602 199.531,194.936 192.5,196.5C 187.191,197.076 182.191,198.409 177.5,200.5C 172.728,200.954 168.061,202.121 163.5,204C 156.554,205.35 149.554,206.183 142.5,206.5C 126.5,206.5 110.5,206.5 94.5,206.5C 86.2814,205.134 77.948,203.634 69.5,202C 62.8524,198.835 56.1857,196.002 49.5,193.5C 46.2139,191.549 43.2139,189.215 40.5,186.5 Z"/></g>
<g><path style="opacity:1" fill="#5480b5" d="M 192.5,196.5 C 187.809,198.591 182.809,199.924 177.5,200.5C 182.191,198.409 187.191,197.076 192.5,196.5 Z"/></g>
<g><path style="opacity:1" fill="#658dbe" d="M 94.5,206.5 C 110.5,206.5 126.5,206.5 142.5,206.5C 126.497,209.116 110.497,209.116 94.5,206.5 Z"/></g>
</svg>
